<svg version="1.2" xmlns="http://www.w3.org/2000/svg" viewBox="0 0 68 68" width="68" height="68">
	<title>favicon</title>
	<style>
		.s0 { fill: #00aaff } 
	</style>
	<path id="ико-ключ" fill-rule="evenodd" class="s0" d="m22 30.2c0-3.6 1.6-6.8 4.1-8.9-2.4-2.2-4-5.3-4-8.8 0-6.3 5.1-11.5 11.4-11.5 6.3 0 11.4 5.2 11.4 11.5 0 3.3-1.2 6.1-3.4 8.2 0 0-0.1 0.1-0.1 0.1-0.2-0.2-0.6-0.6-1.2-1q0.1 0 0.1-0.1c1.9-1.8 3-4.3 3-7.2 0-5.5-4.4-9.9-9.8-9.9-5.4 0-9.8 4.4-9.8 9.9 0 3.2 1.4 6 3.7 7.8 1.7-1.1 3.8-1.8 6.1-1.8 6.4 0 11.5 5.2 11.5 11.7 0 4.9-3.1 9.2-7.4 10.9v1.6q0 0 0.1 0c1.1 0 2 0.9 2 2.1 0 1.1-0.8 2-1.9 2.1q-0.1 0-0.2 0c-1.1 0-2 0.9-2 2 0 1.2 0.9 2.1 2 2.1q0.1 0 0.1 0c0.7 0 1.2 0.6 1.2 1.3 0 0.6-0.6 1.2-1.2 1.2q-0.1 0-0.1 0 0 0 0.1 0c1.1 0 2 0.9 2 2.1 0 1.1-0.9 2.1-2 2.1q-0.1 0-0.1 0v4.1c0 2.3-1.8 4.2-4.1 4.2-2.3 0-4.1-1.9-4.1-4.2v-20.7c-4.3-1.7-7.4-6-7.4-10.9zm11.5-10.3c-1.4 0-2.7 0.8-3.3 2q1.5 0.6 3.3 0.6 1.2 0 2.4-0.3c0.3-0.1 0.3-0.1 0.3-0.1 0.4 0.3 0.6 1.3 0.6 1.5-0.2 0.1-0.2 0.1-0.5 0.1q-1.4 0.4-2.8 0.4-2 0-3.8-0.7 0 0.2 0 0.4c0 2.1 1.7 3.9 3.8 3.9 2.1 0 3.8-1.8 3.8-3.9 0-2.1-1.7-3.9-3.8-3.9z"/>
</svg>